# xmcd
#
# Track frame offsets:
#	150
#	17620
#	26952
#	35892
#	54872
#	75890
#	95787
#	115737
#	126782
#	147735
#
# Disc length: 2170 seconds
#
# Revision: 1
# Processed by: cddbd v1.5.2PL0 Copyright (c) Steve Scherf et al.
# Submitted via: audiograbber 1.83.01
#
DISCID=8408780a
DTITLE=Rhinoceros - Rhinoceros
DYEAR=1969
DGENRE=Oldies
TTITLE0=When You Say You're Sorry
TTITLE1=Same Old Way
TTITLE2=Apricot Brandy
TTITLE3=That Time Of The Year
TTITLE4=You're My Girl (I Don't Want To Discuss It)
TTITLE5=I Need Love
TTITLE6=I've Been There
TTITLE7=Belbuekus
TTITLE8=Along Comes Tomorrow
TTITLE9=I Will Serenade You
EXTD=
EXTT0=
EXTT1=
EXTT2=
EXTT3=
EXTT4=
EXTT5=
EXTT6=
EXTT7=
EXTT8=
EXTT9=
PLAYORDER=
